<svg id="Layer_1" data-name="Layer 1" xmlns="http://www.w3.org/2000/svg" xmlns:xlink="http://www.w3.org/1999/xlink" viewBox="0 0 430.2 332.1"><defs><style>.cls-1{fill:url(#linear-gradient);}.cls-13,.cls-2,.cls-6{opacity:0.3;}.cls-10,.cls-11,.cls-13,.cls-2,.cls-3,.cls-6,.cls-8{isolation:isolate;}.cls-2{fill:url(#linear-gradient-2);}.cls-3{opacity:0.2;fill:url(#linear-gradient-3);}.cls-4{fill:#bd202a;}.cls-5{fill:url(#linear-gradient-4);}.cls-6{fill:url(#linear-gradient-5);}.cls-7{fill:url(#linear-gradient-6);}.cls-10,.cls-8{opacity:0.88;}.cls-8{fill:url(#linear-gradient-7);}.cls-9{fill:url(#linear-gradient-8);}.cls-10{fill:url(#linear-gradient-9);}.cls-11{opacity:0.4;fill:url(#linear-gradient-10);}.cls-12{fill:url(#linear-gradient-11);}.cls-13{fill:url(#linear-gradient-12);}.cls-14{fill:url(#linear-gradient-13);}.cls-15{fill:url(#linear-gradient-14);}.cls-16{fill:url(#linear-gradient-15);}.cls-17{fill:url(#linear-gradient-16);}.cls-18{fill:url(#linear-gradient-17);}.cls-19{fill:url(#linear-gradient-18);}.cls-20{fill:url(#linear-gradient-19);}.cls-21{fill:url(#linear-gradient-20);}.cls-22{fill:url(#linear-gradient-21);}.cls-23{fill:url(#linear-gradient-22);}.cls-24{fill:url(#linear-gradient-23);}</style><linearGradient id="linear-gradient" x1="220.04" y1="-2856.78" x2="122.13" y2="-2703.51" gradientTransform="matrix(1, 0, 0, -1, 0, -2692.72)" gradientUnits="userSpaceOnUse"><stop offset="0" stop-color="#0c0c37"/><stop offset="0.16" stop-color="#242a73"/><stop offset="0.27" stop-color="#233079"/><stop offset="0.44" stop-color="#1f428a"/><stop offset="0.62" stop-color="#1960a5"/><stop offset="0.83" stop-color="#1189cb"/><stop offset="1" stop-color="#09b0ef"/></linearGradient><linearGradient id="linear-gradient-2" x1="168.9" y1="-2855.26" x2="217.21" y2="-2699.95" gradientTransform="matrix(1, 0, 0, -1, 0, -2692.72)" gradientUnits="userSpaceOnUse"><stop offset="0" stop-color="#fff" stop-opacity="0.97"/><stop offset="0.21" stop-color="#d4fbe3" stop-opacity="0.76"/><stop offset="0.69" stop-color="#68f09e" stop-opacity="0.28"/><stop offset="0.97" stop-color="#24ea73" stop-opacity="0"/></linearGradient><linearGradient id="linear-gradient-3" x1="152.2" y1="-2852.37" x2="229.5" y2="-2852.37" gradientTransform="matrix(1, 0, 0, -1, 0, -2692.72)" gradientUnits="userSpaceOnUse"><stop offset="0.03" stop-color="#24ea73" stop-opacity="0"/><stop offset="0.31" stop-color="#68f09e" stop-opacity="0.28"/><stop offset="0.79" stop-color="#d4fbe3" stop-opacity="0.76"/><stop offset="1" stop-color="#fff" stop-opacity="0.97"/></linearGradient><linearGradient id="linear-gradient-4" x1="198.64" y1="-2876.29" x2="288.14" y2="-2719.42" gradientTransform="matrix(1, 0, 0, -1, 0, -2692.72)" gradientUnits="userSpaceOnUse"><stop offset="0.09" stop-color="#83002a"/><stop offset="0.87" stop-color="#83002a" stop-opacity="0.14"/><stop offset="1" stop-color="#83002a" stop-opacity="0"/></linearGradient><linearGradient id="linear-gradient-5" x1="289.88" y1="-2679.14" x2="179.49" y2="-2927.65" xlink:href="#linear-gradient-2"/><linearGradient id="linear-gradient-6" x1="180.81" y1="-2866.12" x2="270.31" y2="-2709.25" xlink:href="#linear-gradient-4"/><linearGradient id="linear-gradient-7" x1="171.34" y1="-2869.45" x2="102.4" y2="-2761.53" xlink:href="#linear-gradient"/><linearGradient id="linear-gradient-8" x1="189.36" y1="-2871" x2="278.86" y2="-2714.13" xlink:href="#linear-gradient-4"/><linearGradient id="linear-gradient-9" x1="185.91" y1="-2860.15" x2="116.97" y2="-2752.22" xlink:href="#linear-gradient"/><linearGradient id="linear-gradient-10" x1="202.47" y1="-2862.07" x2="240.13" y2="-2740.97" xlink:href="#linear-gradient-2"/><linearGradient id="linear-gradient-11" x1="201.07" y1="-2911.97" x2="276.9" y2="-2668.17" gradientTransform="matrix(1, 0, 0, -1, 0, -2692.72)" gradientUnits="userSpaceOnUse"><stop offset="0.01" stop-color="#00a099"/><stop offset="0.13" stop-color="#04a798"/><stop offset="0.31" stop-color="#0dbb95"/><stop offset="0.53" stop-color="#1ddb8f"/><stop offset="0.54" stop-color="#1edd8f"/><stop offset="0.58" stop-color="#1fdf8b"/><stop offset="0.81" stop-color="#23e779"/><stop offset="0.97" stop-color="#24ea73"/></linearGradient><linearGradient id="linear-gradient-12" x1="204.45" y1="-2874.47" x2="244.38" y2="-2646.25" gradientTransform="matrix(1, 0, 0, -1, 0, -2692.72)" gradientUnits="userSpaceOnUse"><stop offset="0" stop-color="#fff" stop-opacity="0.97"/><stop offset="0.21" stop-color="#d4fbe4" stop-opacity="0.78"/><stop offset="0.36" stop-color="#b1f7cd" stop-opacity="0.64"/><stop offset="0.87" stop-color="#3bec82" stop-opacity="0.1"/><stop offset="0.97" stop-color="#24ea73" stop-opacity="0"/></linearGradient><linearGradient id="linear-gradient-13" x1="90.9" y1="-2874.02" x2="90.9" y2="-2990.82" gradientTransform="matrix(1, 0, 0, -1, 0, -2692.72)" gradientUnits="userSpaceOnUse"><stop offset="0" stop-color="#006ac5"/><stop offset="1" stop-color="#031023"/></linearGradient><linearGradient id="linear-gradient-14" x1="136.45" y1="-2874.02" x2="136.45" y2="-2990.82" xlink:href="#linear-gradient-13"/><linearGradient id="linear-gradient-15" x1="185.35" y1="-2874.02" x2="185.35" y2="-2990.82" xlink:href="#linear-gradient-13"/><linearGradient id="linear-gradient-16" x1="219.3" y1="-2872.11" x2="219.3" y2="-2988.91" xlink:href="#linear-gradient-13"/><linearGradient id="linear-gradient-17" x1="250.05" y1="-2874.02" x2="250.05" y2="-2990.82" xlink:href="#linear-gradient-13"/><linearGradient id="linear-gradient-18" x1="295.5" y1="-2874.02" x2="295.5" y2="-2990.82" xlink:href="#linear-gradient-13"/><linearGradient id="linear-gradient-19" x1="339.35" y1="-2874.02" x2="339.35" y2="-2990.82" xlink:href="#linear-gradient-13"/><linearGradient id="linear-gradient-20" x1="140.8" y1="-2938.25" x2="140.8" y2="-3048.32" gradientTransform="matrix(1, 0, 0, -1, 0, -2692.72)" gradientUnits="userSpaceOnUse"><stop offset="0" stop-color="#33d098"/><stop offset="0.94" stop-color="#345c83"/></linearGradient><linearGradient id="linear-gradient-21" x1="181.75" y1="-2938.25" x2="181.75" y2="-3048.32" xlink:href="#linear-gradient-20"/><linearGradient id="linear-gradient-22" x1="228.7" y1="-2938.25" x2="228.7" y2="-3048.32" xlink:href="#linear-gradient-20"/><linearGradient id="linear-gradient-23" x1="284.25" y1="-2938.25" x2="284.25" y2="-3048.32" xlink:href="#linear-gradient-20"/></defs><title>marca</title><path class="cls-1" d="M225.2,144.5l1.1-1.4a6.05,6.05,0,0,1-.9.9h0a9,9,0,0,1-1,.9,22.51,22.51,0,0,1-10.2,5,6.75,6.75,0,0,1-1.4.2h-.3a14.77,14.77,0,0,1-2.1.1,7.57,7.57,0,0,1-1.5-.1,27,27,0,0,1-2.8-.4,19,19,0,0,1-12.9-9.1,27.2,27.2,0,0,1-3.2-9.4c0-.3-.1-.6-.1-.8,0-.4-.1-.9-.1-1.3V17.5l-16.4,7.9-12.8,6.2a24.41,24.41,0,0,0-13.9,22v79.7s.8,12.8,5.3,21.7h0c4.6,10.7,11.2,19.5,20.6,26.2.2,0,1.3.3,1.4.3a3.51,3.51,0,0,0-.8-.5h.5a6.89,6.89,0,0,0,1.3,1.1C198,181.9,215.9,165.7,225.2,144.5Z"/><path class="cls-2" d="M173.8,132.1c1.2,10.3,8.3,19.5,19.1,20.8a35.71,35.71,0,0,0,17.7-2.7h0a7.57,7.57,0,0,1-1.5-.1,27,27,0,0,1-2.8-.4,20.4,20.4,0,0,1-14.4-12.3c-2.4-5.7-1.9-11.9-1.9-17.9V17.5l-16.4,7.9v77.7c0,8.5.1,17.1,0,25.7C173.7,129.9,173.7,131,173.8,132.1Z"/><path class="cls-3" d="M184.2,165a66.14,66.14,0,0,1-32-10.1,63.84,63.84,0,0,0,21.4,26.5,57.82,57.82,0,0,0,55.9-43.5,19.47,19.47,0,0,1-3,4.8C217.2,156.4,202,166.1,184.2,165Z"/><path class="cls-4" d="M274.1,7,239.3,23.7l-3,1.7v96.5a23.1,23.1,0,0,1-2,9.5A65.27,65.27,0,0,1,207.9,170a57.27,57.27,0,0,1-33.3,11.3h-.4a66.84,66.84,0,0,0,39.6,13c38.3,0,69.4-32.5,69.4-72.5V2.6Z"/><path class="cls-5" d="M236.3,25.4v96.5a23.1,23.1,0,0,1-2,9.5A65.27,65.27,0,0,1,207.9,170a57.27,57.27,0,0,1-33.3,11.3,59.17,59.17,0,0,0,35.8,12.3c35.2,0,63.7-31.6,63.7-70.6V7L239.3,23.7Z"/><path class="cls-6" d="M173.5,181.4s51.8,4.7,62.8-56.5V31.7l24-11.9c0,26.3,1.1,14.9,1,41.2-.2,38.9,6.3,80.9-27.6,108.2C216.5,182.9,194.8,187.1,173.5,181.4Z"/><polygon class="cls-4" points="239.3 23.7 236.3 25.1 236.3 25.4 239.3 23.7"/><path class="cls-7" d="M207.9,170a65.87,65.87,0,0,0,26.4-38.6,24.83,24.83,0,0,0,2-9.5V25.4l-5.2,2.9v94.8a24.08,24.08,0,0,1-1.8,9.3,65.61,65.61,0,0,1-3.8,11.6,20.63,20.63,0,0,0,4.1-6A57.29,57.29,0,0,1,207.9,170Z"/><path class="cls-4" d="M174,180.8h-.5a3.51,3.51,0,0,0,.8.5h.4A1.79,1.79,0,0,1,174,180.8Z"/><path class="cls-8" d="M174,180.8h-.5a3.51,3.51,0,0,0,.8.5h.4A1.79,1.79,0,0,1,174,180.8Z"/><path class="cls-4" d="M174,180.8a3,3,0,0,0,.7.5A57.51,57.51,0,0,0,208,170,61,61,0,0,1,174,180.8Z"/><path class="cls-9" d="M174,180.8a3,3,0,0,0,.7.5A57.51,57.51,0,0,0,208,170,61,61,0,0,1,174,180.8Z"/><path class="cls-10" d="M174,180.8a3,3,0,0,0,.7.5A57.51,57.51,0,0,0,208,170,61,61,0,0,1,174,180.8Z"/><path class="cls-11" d="M209.1,150.1c.5,0,1,.1,1.5.1a18.59,18.59,0,0,1-4.2-.5A25.12,25.12,0,0,0,209.1,150.1Z"/><path class="cls-12" d="M226,126.8a53.24,53.24,0,0,1-2.2,15.2,56.58,56.58,0,0,1-9.3,18.1,54.49,54.49,0,0,1-34.7,20.2,63.16,63.16,0,0,1-7.5.6c-.1,0-.1.1,0,.2A59.54,59.54,0,0,0,208.1,192c32.6-.7,58.2-28.2,58.2-60.8V.1a.1.1,0,0,0-.1-.1L242.8,11.6a30.18,30.18,0,0,0-16.8,27v77.7C225.9,119.9,226,123.4,226,126.8Z"/><path class="cls-13" d="M172.1,180.8s44.4,4,53.9-48.4V37.6a28.44,28.44,0,0,1,15.8-25.5l4.8-2.4c0,22.6,1,45.2.8,67.7-.2,33.4,5.4,69.4-23.7,92.8C208.9,182.1,190.3,185.7,172.1,180.8Z"/><path class="cls-14" d="M70.6,251.9V216.3h12v34.5c0,4,1.9,7.4,8.3,7.4s8.3-3.4,8.3-7.4V216.3h12v35.6c0,11.3-8.7,18-20.3,18S70.6,263.2,70.6,251.9Z"/><path class="cls-15" d="M157.1,216.4v52.5h-9l-20.3-28.5v28.5h-12V216.4h9l20.3,28.5V216.4Z"/><path class="cls-16" d="M195,260.6H175.5l-2.6,8.3H159.8l17.9-52.5H193l17.9,52.5H197.8Zm-3.6-11.2-6.2-19.3L179,249.4Z"/><path class="cls-17" d="M211.1,239.2h16.4V250H211.1Z"/><path class="cls-18" d="M229.8,257l10.4-6c1.9,4.4,5.1,7.3,11,7.3,5.7,0,7.1-2.3,7.1-4.3,0-3.2-3-4.5-10.9-6.7s-15.5-5.9-15.5-16,8.6-16,17.6-16c8.6,0,15.4,4.1,19.2,11.9l-10.1,5.9c-1.8-3.8-4.3-6.1-9.1-6.1-3.8,0-5.6,1.9-5.6,4,0,2.4,1.3,4.1,9.5,6.5,8,2.4,16.9,5.2,16.9,16.3,0,10.1-8.1,16.1-19.5,16.1C239.8,269.9,232.8,264.7,229.8,257Z"/><path class="cls-19" d="M275.2,251.9V216.3h12v34.5c0,4,1.9,7.4,8.3,7.4s8.3-3.4,8.3-7.4V216.3h12v35.6c0,11.3-8.7,18-20.3,18S275.2,263.2,275.2,251.9Z"/><path class="cls-20" d="M319.1,257l10.4-6c1.9,4.4,5.1,7.3,11,7.3,5.7,0,7.1-2.3,7.1-4.3,0-3.2-3-4.5-10.9-6.7s-15.5-5.9-15.5-16,8.6-16,17.6-16c8.6,0,15.4,4.1,19.2,11.9l-10.1,5.9c-1.8-3.8-4.3-6.1-9.1-6.1-3.8,0-5.6,1.9-5.6,4,0,2.4,1.3,4.1,9.5,6.5,8,2.4,16.9,5.2,16.9,16.3,0,10.1-8.1,16.1-19.5,16.1C329.1,269.9,322.1,264.7,319.1,257Z"/><path class="cls-21" d="M120.5,314.1V278.5h12V313c0,4,1.9,7.4,8.3,7.4s8.3-3.4,8.3-7.4V278.5h12v35.6c0,11.3-8.7,18-20.3,18S120.5,325.4,120.5,314.1Z"/><path class="cls-22" d="M177.8,290.1v10.1h19.5v11.6H177.8v19.3h-12V278.6h31.9v11.6H177.8Z"/><path class="cls-23" d="M255,331.1H243V300.6l-13.6,22.3H228l-13.6-22.3v30.5h-12V278.6h12l14.3,23.3L243,278.6h12Z"/><path class="cls-24" d="M293.9,322.8H274.4l-2.6,8.3H258.7l17.9-52.5h15.3l17.9,52.5H296.7Zm-3.6-11.2-6.2-19.3-6.2,19.3Z"/></svg>